<?xml version="1.0" encoding="utf-8"?>
<!-- Generator: Adobe Illustrator 15.0.0, SVG Export Plug-In . SVG Version: 6.00 Build 0)  -->
<!DOCTYPE svg PUBLIC "-//W3C//DTD SVG 1.1//EN" "http://www.w3.org/Graphics/SVG/1.1/DTD/svg11.dtd">
<svg version="1.1" xmlns="http://www.w3.org/2000/svg" xmlns:xlink="http://www.w3.org/1999/xlink" x="0px" y="0px" width="792px"
	 height="339px" viewBox="0 0 792 339" enable-background="new 0 0 792 339" xml:space="preserve">
<g id="Layer_1">
	<rect fill="#E52A30" width="792" height="339"/>
</g>
<g id="Layer_4" display="none">
	<text transform="matrix(1 0 0 1 132.8291 76.6313)" display="inline"><tspan x="0" y="0" fill="#F5F5F5" font-family="'Knockout-HTF54-Sumo'" font-size="115.059">EVERY </tspan><tspan x="-122.824" y="86.81" fill="#F5F5F5" font-family="'Knockout-HTF54-Sumo'" font-size="115.059">SHOOTING</tspan><tspan x="-110.743" y="173.62" fill="#F5F5F5" font-family="'Knockout-HTF54-Sumo'" font-size="115.059">IS A MASS</tspan><tspan x="-139.853" y="260.43" fill="#F5F5F5" font-family="'Knockout-HTF54-Sumo'" font-size="115.059">SHOOTING.</tspan></text>
	<circle display="inline" fill="#E52A30" cx="68.376" cy="87.106" r="9.782"/>
	<circle display="inline" fill="#E52A30" cx="433.896" cy="214.619" r="9.782"/>
	<circle display="inline" fill="#E52A30" cx="543" cy="265" r="9.782"/>
	<circle display="inline" fill="#E52A30" cx="654.449" cy="101.981" r="9.782"/>
	<circle display="inline" fill="#E52A30" cx="570" cy="19.218" r="9.782"/>
	<circle display="inline" fill="#E52A30" cx="618.336" cy="293.452" r="9.783"/>
	<circle display="inline" fill="#E52A30" cx="678.82" cy="193.805" r="9.782"/>
	<circle display="inline" fill="#E52A30" cx="239.427" cy="103.368" r="9.782"/>
	<circle display="inline" fill="#E52A30" cx="489.833" cy="96.031" r="9.782"/>
	<circle display="inline" fill="#E52A30" cx="394.723" cy="39.113" r="9.782"/>
	<circle display="inline" fill="#E52A30" cx="258.191" cy="148.387" r="9.782"/>
	<circle display="inline" fill="#E52A30" cx="191.861" cy="151.065" r="9.782"/>
	<circle display="inline" fill="#E52A30" cx="101.701" cy="225.041" r="9.782"/>
	<circle display="inline" fill="#E52A30" cx="25.842" cy="201.242" r="9.782"/>
	<circle display="inline" fill="#E52A30" cx="43.692" cy="167.032" r="9.782"/>
	<circle display="inline" fill="#E52A30" cx="36.359" cy="323.623" r="9.782"/>
	<circle display="inline" fill="#E52A30" cx="314.402" cy="107.535" r="9.782"/>
	<circle display="inline" fill="#E52A30" cx="295.066" cy="275.613" r="9.782"/>
	<circle display="inline" fill="#E52A30" cx="340.188" cy="284.527" r="9.782"/>
	<circle display="inline" fill="#E52A30" cx="576.218" cy="277" r="9.782"/>
	<circle display="inline" fill="#E52A30" cx="468.531" cy="190.468" r="9.782"/>
	<circle display="inline" fill="#E52A30" cx="351.588" cy="170.007" r="9.782"/>
	<circle display="inline" fill="#E52A30" cx="243.006" cy="174.468" r="9.782"/>
	<circle display="inline" fill="#E52A30" cx="147.811" cy="299.413" r="9.782"/>
	<circle display="inline" fill="#E52A30" cx="274.742" cy="242.879" r="9.782"/>
	<circle display="inline" fill="#E52A30" cx="451.245" cy="88.198" r="9.782"/>
	<circle display="inline" fill="#E52A30" cx="171.61" cy="64.399" r="9.782"/>
	<g display="inline">
		<circle cx="413.851" cy="178.17" r="10.932"/>
		<g>
			<g>
				<path fill-rule="evenodd" clip-rule="evenodd" d="M425.214,176.312c0.012-0.12,0.023-0.238,0.035-0.358
					c-0.025-0.109-0.117-0.271-0.144-0.357c-0.023-0.25-0.047-0.5-0.071-0.751c-0.171-0.436-0.199-0.934-0.356-1.393
					c0.019-0.097-0.007-0.417-0.072-0.573c-0.052-0.125-0.279-0.263-0.321-0.393c-0.045-0.135,0.12-0.147,0.072-0.322
					c-0.098-0.344-0.446-0.543-0.5-0.893c-0.448-0.001-1.315-0.679-1.431-1.001c-0.074-0.209-0.053-0.672-0.07-0.715
					c-0.018-0.044-0.116-0.04-0.144-0.071c-0.097-0.12-0.036-0.314-0.106-0.464c-0.073-0.155-0.262-0.358-0.321-0.536v-0.572
					c-0.023-0.068-0.124-0.122-0.145-0.178c0.013-0.131,0.023-0.262,0.036-0.394c-0.029-0.108-0.159-0.211-0.07-0.357
					c-0.025-0.342-0.342-0.3-0.465-0.536c-0.079-0.15,0.049-0.29-0.037-0.429v-0.036c-0.313-0.002-0.237-0.117-0.393-0.25
					c-0.038-0.038-0.787,0.134-0.82,0.286c-0.103-0.06-0.189-0.533-0.108-0.644v-0.071c-0.105,0.08-0.271,0.268-0.43,0.179
					c-0.034-0.012-0.071-0.025-0.106-0.036c0.011-0.131,0.023-0.263,0.035-0.394c-0.156,0.037-0.217,0.167-0.25,0.322
					c-0.106,0.016-0.215-0.003-0.287,0.036c-0.08,0.046-0.055,0.076-0.105,0.143c-0.088,0.061-0.319,0.088-0.43,0.107
					c-0.141-0.145-0.354-0.262-0.464-0.428c-0.114,0.016-0.271,0.057-0.32,0.143c-0.235-0.029-0.298-0.148-0.537-0.179
					c-0.18-0.498-0.158-0.144-0.394-0.357c-0.05-0.045-0.036-0.194-0.107-0.215c-0.102-0.03-0.119,0.083-0.142,0.143
					c-0.235-0.017-0.252-0.11-0.394-0.179c-0.144-0.068-0.294-0.015-0.431-0.036c0.033-0.115-0.019-0.055,0.071-0.107v-0.178
					c-0.19-0.042-0.444-0.095-0.57,0c-0.112,0.002-0.225,0.005-0.286-0.037c-0.026-0.038-0.021-0.033-0.036-0.106
					c-0.072-0.015-0.069-0.009-0.106-0.036c-0.243,0.007-0.348-0.006-0.466-0.107c-0.011-0.012-0.023-0.024-0.036-0.036
					c-0.036,0.066-0.073,0.136-0.106,0.214c-0.185,0.031-0.186-0.018-0.393-0.035c0.038,0.102,0.074,0.174,0.179,0.214
					c-0.068,0.162-0.26,0.156-0.357,0.286c-0.043,0.057-0.049,0.179-0.106,0.215c-0.172,0.105-0.192-0.047-0.322,0.143
					c-0.188-0.051-0.096-0.147-0.18-0.286c-0.048-0.003-0.05-0.009-0.105,0.071c-0.103-0.003-0.153-0.015-0.215-0.036
					c-0.023-0.062-0.007-0.035-0.035-0.071c0.052-0.24,0.345-0.425,0.213-0.608c-0.035-0.029-0.008-0.013-0.069-0.036
					c-0.025,0.083-0.049,0.167-0.072,0.25c-0.083-0.008-0.102-0.007-0.143-0.037c-0.103,0.004-0.153,0.015-0.215,0.037
					c0.071,0.071,0.143,0.143,0.215,0.214v0.072c-0.11-0.004-0.146-0.021-0.18,0c-0.119,0-0.212-0.011-0.286-0.036v-0.25
					c-0.076,0.013-0.631,0.1-0.68,0.071c-0.224,0.004-0.251,0.065-0.284,0.25c-0.037,0.012-0.071,0.024-0.109,0.036
					c-0.054-0.087-0.083-0.081-0.106-0.214h-0.071c-0.024,0.036-0.048,0.071-0.071,0.107c-0.11,0.045-0.295-0.053-0.357,0.036
					c-0.067,0.097-0.013,0.247-0.106,0.358c-0.082,0.035-0.084,0.008-0.144-0.072c-0.161,0.056-0.454,0.489-0.536,0.644
					c-0.166,0.031-0.264,0.006-0.464,0c-0.015,0.073-0.01,0.068-0.035,0.106c-0.077,0.132-0.232,0.069-0.358,0.143
					c-0.167-0.015-0.156-0.028-0.215-0.143c-0.225,0.046-0.261,0.257-0.393,0.394c-0.012,0.12-0.035,0.088,0.036,0.178
					c-0.071,0.049-0.158,0.045-0.214,0.107c-0.135-0.035-0.096-0.109-0.18-0.143c-0.071,0.012-0.143,0.023-0.214,0.036
					c-0.086-0.006-0.541-0.085-0.572-0.106c-0.063-0.054-0.077-0.129-0.106-0.215c-0.204,0.045-0.095,0.091-0.181,0.144
					c-0.057,0.036-0.273,0.026-0.32,0.036c-0.079-0.089-0.151-0.177-0.214-0.286c-0.193,0.071-0.4,0.323-0.537,0.465
					c-0.011,0.011-0.025,0.023-0.036,0.035c-0.079-0.225-0.127-0.426-0.214-0.607c-0.023-0.012-0.047-0.024-0.071-0.036
					c-0.075,0.143-0.197,0.202-0.25,0.357c-0.085-0.039-0.098-0.069-0.143-0.143c-0.172,0.028-0.27,0.074-0.501,0.072
					c-0.068,0.144-0.15,0.306-0.249,0.429c-0.013,0.012-0.024,0.024-0.036,0.036c-0.023-0.083-0.049-0.167-0.072-0.25
					c-0.072,0.015-0.069,0.01-0.106,0.036c-0.042,0.065-0.026,0.192-0.036,0.214c-0.041,0.08-0.051,0.054-0.106,0.107
					c-0.1,0.146-0.151,0.534-0.251,0.715c-0.155,0.053-0.313,0.079-0.43,0.142c-0.01,0.12-0.033,0.089,0.036,0.179
					c-0.062,0.086-0.15,0.072-0.214,0.143c-0.023,0.107-0.047,0.215-0.071,0.321c-0.071,0.024-0.144,0.048-0.214,0.071
					c-0.158,0.271,0.174,0.172-0.215,0.394c0.015,0.375-0.007,0.528-0.251,0.644c-0.001,0.396-0.001,0.577-0.143,0.821
					c-0.06,0.036-0.12,0.072-0.178,0.108c-0.054,0.107,0.047,0.213,0.035,0.286c-0.018,0.096-0.103,0.284-0.145,0.393
					c-0.125,0.051-0.152,0.052-0.284,0.036c-0.013,0.012-0.024,0.024-0.036,0.036c0.007,0.122,0.017,0.182,0.072,0.25v0.179
					c-0.103-0.028-0.125-0.037-0.179-0.107c-0.132,0.045-0.161,0.093-0.18,0.25c-0.083-0.026-0.08-0.037-0.143-0.071
					c-0.043,0.102-0.059,0.155-0.144,0.214c0.019,0.155,0.013,0.143,0.144,0.179c-0.037,0.202-0.267,0.353-0.464,0.393
					c-0.016,0.205-0.094,0.296-0.144,0.429c0.023,0.083,0.048,0.167,0.071,0.25c-0.011,0.048-0.133,0.143-0.143,0.179
					c-0.021,0.074,0.078,0.17,0.036,0.286c-0.008,0.019-0.104,0.107-0.108,0.143c-0.013,0.107,0.087,0.124,0.108,0.178
					c0.012,0.274,0.023,0.548,0.035,0.822c-0.663-0.005-1.753,0.075-1.966,0.465c-0.252-0.013-0.353-0.129-0.535-0.179h-0.537
					c-0.023-0.025-0.048-0.048-0.071-0.071c-0.245-0.06-0.263,0.172-0.429-0.036c-0.123,0.046-0.304,0.158-0.393,0.25
					c-0.247,0-0.338-0.064-0.463-0.178c-0.149,0.007-0.164,0.025-0.251,0.072c0.023,0.125,0.083,0.111,0.107,0.178
					c0.066,0.181-0.091,0.42,0,0.643c0.034,0.083,0.158,0.168,0.18,0.287c0.017,0.103-0.06,0.292,0,0.464
					c0.13,0.383,0.416,0.819,0.607,1.179c0.148,0.28,0.241,0.847,0.643,0.75c0.012,0.012,0.023,0.023,0.036,0.036
					c-0.025,0.129-0.152,0.428-0.25,0.5c0.001,0.667,0.438,0.81,0.679,1.215c0.024,0.155,0.048,0.31,0.071,0.464
					c0.048,0.036,0.096,0.072,0.144,0.108v1.107c0.048,0.023,0.095,0.048,0.144,0.072c0.093,0.17,0.11,1.063,0.463,0.715h0.072
					c0.039,0.221-0.11,0.422-0.036,0.644c0.052,0.153,0.211,0.465,0.251,0.606v0.465c0.128,0.293,0.764,1.034,1.071,1.144
					c0.092,0.034,0.094-0.008,0.143-0.108c0.295,0.032,0.245,0.239,0.429,0.358c0.07,0.011,0.143,0.023,0.215,0.035
					c0.117,0.06,0.301,0.24,0.429,0.286c0.296,0.106,0.66-0.106,0.786-0.037c0.189,0.036,0.246,0.186,0.322,0.322
					c0.127-0.022,0.121-0.023,0.179-0.106c0.236,0.033,0.238,0.165,0.394,0.25c0.176,0.098,0.374,0.075,0.534,0.179
					c0.105,0.067,0.201,0.241,0.322,0.286h0.286c0.052,0.017,0.137,0.126,0.18,0.142c0.157,0.063,0.441-0.004,0.569,0.037
					c0.094-0.145,0.202-0.272,0.287-0.43c0.262,0.057,0.417,0.3,0.607,0.43c0.4,0.268,0.734,0.439,1.215,0.643
					c0.078,0.033,0.138,0.148,0.215,0.179c0.254,0.097,0.456,0.046,0.715,0.143c0.181,0.067,0.394,0.227,0.608,0.285
					c0.298,0.083,0.499,0.024,0.784,0.107c0.269,0.078,0.577,0.283,0.823,0.358h0.286c0.036,0.036,0.071,0.072,0.106,0.107h0.322
					c0.048,0.047,0.095,0.095,0.144,0.143c0.527,0.216,1.091,0.243,1.607,0.463c0.622,0.267,1.241,0.601,1.965,0.788
					c0.256,0.066,0.466-0.045,0.68,0c1.306,0.277,2.607-0.281,3.645-0.751c0.283-0.128,0.798-0.17,1.002-0.358
					c0.011-0.046,0.022-0.095,0.034-0.142c0.15-0.114,0.465-0.025,0.607-0.143c0.804-0.671,1.779-1.442,2.395-2.288
					c0.076-0.104,0.073-0.245,0.144-0.357c0.034-0.023,0.071-0.048,0.106-0.072v-0.287c0.06-0.046,0.12-0.095,0.179-0.141
					c0.128-0.234,0.125-0.47,0.249-0.715c0.096-0.183,0.287-0.418,0.359-0.607c0.067-0.179,0.019-0.368,0.107-0.537
					c0.066-0.128,0.198-0.335,0.25-0.5c0.023-0.076-0.05-0.111-0.037-0.144c0.037-0.093,0.177-0.24,0.215-0.357v-0.215
					c0.059-0.059,0.119-0.118,0.179-0.178v-0.286c0.104-0.313,0.314-0.665,0.394-1.036c0.099-0.452,0.087-1.16,0.214-1.68v-0.32
					c0.023-0.074,0.119-0.195,0.143-0.287v-0.428c0.106-0.363,0.298-0.829,0.357-1.25
					C425.421,176.789,425.24,176.454,425.214,176.312z M404.485,167.484c0.029,0.037,0.015,0.009,0.037,0.071
					C404.45,167.523,404.499,167.563,404.485,167.484z M423.678,181.672h-0.037V181.6h0.037V181.672z M424.82,176.276
					c0.188,0.793-0.455,1.353-0.715,1.858c-0.156,0.304-0.02,0.676-0.143,1.036c-0.029,0.083-0.153,0.172-0.179,0.251
					c-0.097,0.277,0.12,0.514,0,0.75c-0.083,0.163-0.32,0.323-0.393,0.501c-0.012,0.155-0.023,0.31-0.036,0.464
					c-0.045,0.106-0.209,0.138-0.285,0.215c-0.155,0.152-0.214,0.447-0.394,0.572c-0.089,0.06-0.252,0.051-0.287,0.07
					c-0.062,0.037-0.32,0.295-0.356,0.357c-0.103,0.183,0.043,0.493-0.036,0.715c-0.094,0.259-0.315,0.51-0.464,0.715
					c-0.013,0.047-0.024,0.094-0.036,0.143c-0.035,0.03-0.337,0.111-0.394,0.144c0,0.304,0.092,0.415,0.144,0.606v0.572
					c0.071,0.263,0.333,0.44,0.537,0.571c-0.027,0.083-0.039,0.08-0.072,0.144c-0.137-0.015-0.287-0.072-0.394,0h-0.071
					c-0.039,0.249,0.066,0.59-0.034,0.822c-0.227,0.072-0.453,0.142-0.681,0.214c-0.227,0.166-0.177,0.508-0.358,0.715
					c-0.347,0.395-1.223,0.312-1.535,0c-0.182-0.002-0.258,0.017-0.358,0.071c0.01,0.182,0.061,0.346,0.144,0.464
					c-0.018,0.178-0.196,0.44-0.321,0.501c-0.107,0.011-0.216,0.023-0.322,0.035c-0.149,0.083-0.293,0.316-0.464,0.394
					c-0.069,0.032-0.878,0.165-0.966,0.143c-0.065-0.016-0.127-0.098-0.249-0.071c-0.266,0.058-0.401,0.093-0.751,0.071
					c-0.222-0.218-0.543-0.418-0.715-0.678c-0.073,0.013-0.068,0.008-0.107,0.036c-0.422-0.015-0.384-0.236-0.571-0.466
					c-0.048-0.023-0.096-0.047-0.143-0.072c-0.053-0.068-0.04-0.198-0.107-0.25c-0.132-0.035-0.262-0.071-0.394-0.107
					c-0.151-0.1-0.265-0.293-0.465-0.357h-0.606c-0.06-0.022-0.366-0.288-0.466-0.322h-0.928c-0.197-0.047-0.492-0.097-0.716-0.144
					c-0.364-0.078-0.464,0.226-0.714,0c-0.263-0.106-0.124-0.377-0.287-0.571c-0.06-0.072-0.195-0.097-0.249-0.179
					c-0.038-0.057-0.033-0.129-0.071-0.178c-0.069-0.058-0.143-0.08-0.215-0.037c-0.251-0.047-0.239-0.252-0.357-0.428v-0.035
					c-0.25,0.078-0.313,0.369-0.43,0.571c-0.256-0.003-0.468,0.027-0.606,0.142c-0.132-0.051-0.139-0.171-0.252-0.213
					c-0.353-0.135-0.621-0.014-0.963,0c-0.108-0.084-0.215-0.167-0.321-0.25c0.014-0.074,0.009-0.069,0.035-0.108
					c0.097-0.033,0.322,0.12,0.5,0.144c0.265,0.036,0.264-0.171,0.357-0.214c0.16-0.072,0.312,0.08,0.464-0.035
					c0.076-0.071,0.045-0.163,0.108-0.25c0.098-0.135,0.363-0.222,0.536-0.287c0.15-0.965-0.415-1.861-0.717-2.607
					c-0.227-0.568-0.219-1.274-0.5-1.787c-0.082-0.083-0.165-0.168-0.249-0.251c-0.105-0.163-0.101-0.306-0.178-0.5
					c-0.036-0.036-0.072-0.071-0.107-0.107c-0.014-0.107-0.024-0.214-0.037-0.321c-0.059-0.156-0.267-0.282-0.321-0.429
					c-0.07-0.19-0.012-0.332-0.072-0.5c-0.072-0.209-0.252-0.474-0.32-0.68v-0.285c-0.029-0.108-0.115-0.25-0.143-0.358v-0.572
					c-0.052-0.176-0.175-0.343-0.215-0.572c-0.038-0.218,0.177-0.505,0.107-0.785c-0.053-0.21-0.291-0.298-0.358-0.465
					c-0.134-0.342,0.076-0.574-0.142-0.857c-0.007-0.148-0.023-0.231,0.069-0.287c0.172-0.085,0.336,0.06,0.538,0
					c0.113-0.034,0.333-0.251,0.535-0.179c0.036,0.036,0.072,0.072,0.108,0.107c0.126,0.035,0.153-0.068,0.285,0
					c0.095,0.049,0.1,0.201,0.321,0.143c0.126-0.034,0.29-0.144,0.428-0.179h0.823c0.235-0.104,0.399-0.363,0.608-0.5
					c0.018-0.119,0.067-0.257,0-0.357c0.041-0.369,0.251-0.208,0.5-0.357c0.166-0.1,0.362-0.291,0.499-0.429
					c0.535-0.022,0.875-0.041,0.966,0.393c0.308-0.064,0.395-0.423,0.642-0.536c0.094-0.042,0.221,0.006,0.287-0.036
					c0.325-0.264,0.287-0.915,0.715-1.072c0.037-0.029,0.01-0.013,0.071-0.036c0.023,0.023,0.047,0.047,0.071,0.071
					c0,0.741-0.003,1.398,0.286,1.93c0.06,0.108,0.246,0.179,0.323,0.286c0.323-0.032,0.5-0.022,0.642,0.214
					c0.062-0.023,0.036-0.007,0.072-0.036c0.345-0.09,0.322-0.489,0.5-0.75c0.091-0.134,0.306-0.18,0.428-0.286
					c0.146-0.001,0.299,0.003,0.394,0.036c0.012,0.06,0.024,0.119,0.036,0.178c0.175-0.02,0.22-0.05,0.286-0.178
					c0.208,0.034,0.253,0.204,0.429,0.25c0.386,0.101,0.659-0.554,0.928-0.644c0.057-0.028,0.088,0.002,0.144,0.072
					c0.161-0.003,0.196-0.023,0.286-0.072c-0.022-0.162-0.069-0.216-0.179-0.286c0.006-0.09,0.006-0.131,0.036-0.178v-0.036
					c0.262,0.092,0.422,0.687,0.571,0.929c0.137,0.221,0.494,0.354,0.607,0.572v0.179c0.048,0.036,0.096,0.071,0.143,0.107
					c0.013,0.071,0.025,0.143,0.036,0.214c0.056,0.101,0.202,0.213,0.251,0.321v0.143c0.048,0.024,0.096,0.048,0.143,0.072
					c0.054,0.073,0.038,0.194,0.106,0.25c0.067,0.055,0.163,0.039,0.215,0.107c0.126,0.164,0.234,0.426,0.321,0.607
					c0.144,0.052,0.324,0.144,0.431,0.178c0.312,0.106,0.623-0.106,0.999,0c0.117,0.033,0.195,0.146,0.285,0.179
					c0.191,0.067,0.61,0,0.716,0.036c0.12,0.041,0.289,0.206,0.429,0.25c0.172,0.053,0.362,0.005,0.465,0.035
					c0.126,0.037,0.298,0.208,0.428,0.25c0.144-0.011,0.287-0.024,0.431-0.036c0.134,0.029,0.243,0.125,0.356,0.179
					c0.135-0.163,0.603-0.699,1.001-0.429c0.264,0.005,0.379,0.145,0.428,0.357C424.96,175.874,424.765,176.038,424.82,176.276z
					 M419.353,164.947c0.082-0.181,0.132-0.393,0.251-0.536c-0.02-0.222-0.122-0.384-0.285-0.464
					c-0.038,0.029-0.011,0.013-0.072,0.036c-0.01,0.168-0.108,0.243-0.071,0.393c0.033,0.139,0.118,0.366,0.144,0.572H419.353z
					 M412.956,164.697v0.071h0.036C412.969,164.707,412.985,164.733,412.956,164.697z M418.209,165.412
					c0.013-0.012,0.024-0.024,0.036-0.036c-0.031-0.115,0.019-0.055-0.071-0.107c-0.019,0.081-0.031,0.04,0,0.107
					C418.186,165.388,418.198,165.4,418.209,165.412z M403.486,166.233h-0.107v0.143h0.107V166.233z"/>
			</g>
		</g>
	</g>
	<circle display="inline" fill="#E52A30" cx="649.702" cy="208.647" r="10.736"/>
</g>
<g id="Layer_4_copy">
	<g>
		<path fill="#F5F5F5" d="M143.416,76.631V-0.003h78.36v17.49H167.81v14.729h38.663v10.701H167.81v15.304h53.966v18.411H143.416z"/>
		<path fill="#F5F5F5" d="M292.88,76.631h-22.323L229.824-0.003h26.81l27.271,53.276l27.501-53.276h23.358L292.88,76.631z"/>
		<path fill="#F5F5F5" d="M345.227,76.631V-0.003h78.361v17.49h-53.967v14.729h38.662v10.701h-38.662v15.304h53.967v18.411H345.227z
			"/>
		<path fill="#F5F5F5" d="M507.349,76.631c-4.258,0-6.56-5.178-6.789-12.082l-0.23-8.055c-0.229-6.213-2.531-9.436-13.002-9.436
			h-22.093v29.572H440.84V-0.003h51.319c21.979,0,32.909,9.666,32.909,21.632v0.576c0,7.824-5.638,15.188-18.756,17.605
			c14.153,1.266,18.526,8.63,18.526,17.49l0.114,6.329c0,5.063,1.036,9.205,4.373,12.657v0.345H507.349z M500.444,26.002
			c0-5.293-3.912-9.09-14.498-9.09h-20.712v18.871h21.287c9.78,0,13.923-3.567,13.923-9.09V26.002z"/>
		<path fill="#F5F5F5" d="M594.791,46.714v29.917h-24.395V46.599L531.965-0.003h27.155l24.625,31.413l23.358-31.413h26.35
			L594.791,46.714z"/>
		<path fill="#F5F5F5" d="M61.325,166.318c-18.065,0-34.635-4.487-46.602-10.356l7.25-14.613c11.967,5.408,26.695,9.32,38.662,9.32
			c14.499,0,20.021-4.142,20.021-8.285c0-13.808-62.481-4.027-62.481-32.794c0-14.268,18.065-25.66,43.265-25.66
			c17.95,0,30.493,4.603,42.229,10.471l-8.515,13.808c-10.011-5.063-23.128-8.745-34.635-8.745c-12.312,0-19.101,3.797-19.101,8.285
			c0,13.808,63.056,3.682,63.056,32.564C104.475,156.077,85.374,166.318,61.325,166.318z"/>
		<path fill="#F5F5F5" d="M185.82,163.441v-29.687h-41.424v29.687h-24.394V86.807h24.394v30.608h41.424V86.807h24.395v76.634H185.82
			z"/>
		<path fill="#F5F5F5" d="M273.838,166.318c-28.997,0-48.098-18.871-48.098-40.273v-1.841c0-21.632,19.101-40.273,48.098-40.273
			c28.882,0,47.983,18.641,47.983,40.273v1.841C321.821,147.447,302.72,166.318,273.838,166.318z M297.082,124.089
			c0-12.082-8.4-22.898-23.244-22.898c-15.074,0-23.243,10.816-23.243,22.898v1.956c0,12.197,8.169,23.013,23.243,23.013
			c14.844,0,23.244-10.816,23.244-23.013V124.089z"/>
		<path fill="#F5F5F5" d="M380.842,166.318c-28.997,0-48.098-18.871-48.098-40.273v-1.841c0-21.632,19.101-40.273,48.098-40.273
			c28.881,0,47.983,18.641,47.983,40.273v1.841C428.825,147.447,409.724,166.318,380.842,166.318z M404.086,124.089
			c0-12.082-8.4-22.898-23.244-22.898c-15.074,0-23.243,10.816-23.243,22.898v1.956c0,12.197,8.169,23.013,23.243,23.013
			c14.844,0,23.244-10.816,23.244-23.013V124.089z"/>
		<path fill="#F5F5F5" d="M494.058,104.988v58.454h-24.394v-58.454h-32.219V86.807h88.716v18.181H494.058z"/>
		<path fill="#F5F5F5" d="M541.573,163.441V86.807h24.395v76.634H541.573z"/>
		<path fill="#F5F5F5" d="M654.794,163.441l-40.733-41.424l-4.947-5.293v46.717h-23.129V86.807h21.402l40.043,41.309l5.063,5.408
			V86.807h23.128v76.634H654.794z"/>
		<path fill="#F5F5F5" d="M775.835,163.441l-3.337-12.082c-7.364,9.32-19.101,14.958-34.06,14.958
			c-29.802,0-47.407-18.295-47.407-40.158v-1.266c0-22.323,20.942-40.963,50.744-40.963c18.065,0,33.944,7.019,41.885,15.304
			l-11.968,13.693c-5.983-5.869-16.914-11.046-28.19-11.046c-17.03,0-27.616,10.241-27.616,23.013v1.266
			c0,12.197,9.32,22.438,24.739,22.438c12.542,0,20.366-6.443,20.366-12.887v-0.575h-18.065v-10.356h42.575v38.662H775.835z"/>
		<path fill="#F5F5F5" d="M32.097,250.251v-76.634h24.394v76.634H32.097z"/>
		<path fill="#F5F5F5" d="M116.667,253.128c-18.065,0-34.635-4.487-46.602-10.356l7.25-14.613c11.967,5.408,26.695,9.32,38.662,9.32
			c14.499,0,20.021-4.142,20.021-8.285c0-13.808-62.481-4.027-62.481-32.794c0-14.269,18.065-25.66,43.265-25.66
			c17.95,0,30.493,4.603,42.229,10.471l-8.515,13.808c-10.011-5.063-23.128-8.745-34.635-8.745c-12.312,0-19.101,3.797-19.101,8.285
			c0,13.808,63.056,3.682,63.056,32.564C159.816,242.887,140.715,253.128,116.667,253.128z"/>
		<path fill="#F5F5F5" d="M278.785,250.251l-7.709-16.109h-38.317l-7.939,16.109h-22.438l38.432-76.634h25.084l39.123,76.634
			H278.785z M252.205,193.523l-13.002,26.581h25.66L252.205,193.523z"/>
		<path fill="#F5F5F5" d="M444.585,250.251v-50.975l-4.487,8.515l-23.589,42.459h-13.808l-23.474-42.459l-4.488-8.515v50.975
			h-22.438v-76.634h33.6l22.323,41.309l3.222,6.213l3.222-6.213l22.093-41.309h32.219v76.634H444.585z"/>
		<path fill="#F5F5F5" d="M556.19,250.251l-7.71-16.109h-38.316l-7.94,16.109h-22.438l38.433-76.634h25.084l39.123,76.634H556.19z
			 M529.61,193.523l-13.003,26.581h25.66L529.61,193.523z"/>
		<path fill="#F5F5F5" d="M633.507,253.128c-18.065,0-34.635-4.487-46.602-10.356l7.249-14.613
			c11.967,5.408,26.695,9.32,38.662,9.32c14.498,0,20.021-4.142,20.021-8.285c0-13.808-62.48-4.027-62.48-32.794
			c0-14.269,18.065-25.66,43.265-25.66c17.95,0,30.492,4.603,42.229,10.471l-8.515,13.808c-10.012-5.063-23.129-8.745-34.636-8.745
			c-12.312,0-19.101,3.797-19.101,8.285c0,13.808,63.057,3.682,63.057,32.564C676.657,242.887,657.556,253.128,633.507,253.128z"/>
		<path fill="#F5F5F5" d="M732.342,253.128c-18.065,0-34.635-4.487-46.602-10.356l7.249-14.613
			c11.967,5.408,26.695,9.32,38.662,9.32c14.498,0,20.021-4.142,20.021-8.285c0-13.808-62.48-4.027-62.48-32.794
			c0-14.269,18.065-25.66,43.265-25.66c17.95,0,30.492,4.603,42.229,10.471l-8.515,13.808c-10.012-5.063-23.129-8.745-34.636-8.745
			c-12.312,0-19.101,3.797-19.101,8.285c0,13.808,63.057,3.682,63.057,32.564C775.492,242.887,756.391,253.128,732.342,253.128z"/>
		<path fill="#F5F5F5" d="M44.297,339.938c-18.065,0-34.635-4.488-46.602-10.356l7.25-14.613c11.967,5.408,26.695,9.32,38.662,9.32
			c14.499,0,20.021-4.143,20.021-8.285c0-13.808-62.481-4.027-62.481-32.793c0-14.268,18.065-25.66,43.265-25.66
			c17.95,0,30.493,4.603,42.229,10.471l-8.515,13.808c-10.011-5.063-23.128-8.745-34.635-8.745c-12.312,0-19.101,3.797-19.101,8.285
			c0,13.808,63.056,3.682,63.056,32.564C87.447,329.697,68.346,339.938,44.297,339.938z"/>
		<path fill="#F5F5F5" d="M168.792,337.062v-29.688h-41.424v29.688h-24.394v-76.634h24.394v30.608h41.424v-30.608h24.395v76.634
			H168.792z"/>
		<path fill="#F5F5F5" d="M256.811,339.938c-28.997,0-48.098-18.871-48.098-40.273v-1.841c0-21.632,19.101-40.273,48.098-40.273
			c28.882,0,47.983,18.641,47.983,40.273v1.841C304.793,321.067,285.692,339.938,256.811,339.938z M280.054,297.709
			c0-12.082-8.4-22.898-23.244-22.898c-15.074,0-23.243,10.816-23.243,22.898v1.956c0,12.197,8.169,23.013,23.243,23.013
			c14.844,0,23.244-10.815,23.244-23.013V297.709z"/>
		<path fill="#F5F5F5" d="M363.814,339.938c-28.997,0-48.098-18.871-48.098-40.273v-1.841c0-21.632,19.101-40.273,48.098-40.273
			c28.882,0,47.982,18.641,47.982,40.273v1.841C411.797,321.067,392.696,339.938,363.814,339.938z M387.058,297.709
			c0-12.082-8.4-22.898-23.244-22.898c-15.074,0-23.243,10.816-23.243,22.898v1.956c0,12.197,8.169,23.013,23.243,23.013
			c14.844,0,23.244-10.815,23.244-23.013V297.709z"/>
		<path fill="#F5F5F5" d="M477.03,278.608v58.454h-24.394v-58.454h-32.219v-18.181h88.716v18.181H477.03z"/>
		<path fill="#F5F5F5" d="M524.545,337.062v-76.634h24.395v76.634H524.545z"/>
		<path fill="#F5F5F5" d="M637.766,337.062l-40.733-41.424l-4.948-5.293v46.717h-23.128v-76.634h21.402l40.043,41.309l5.063,5.408
			v-46.717h23.128v76.634H637.766z"/>
		<path fill="#F5F5F5" d="M758.808,337.062l-3.337-12.082c-7.364,9.32-19.101,14.959-34.06,14.959
			c-29.802,0-47.407-18.296-47.407-40.159v-1.266c0-22.323,20.942-40.963,50.744-40.963c18.065,0,33.944,7.019,41.885,15.304
			l-11.968,13.693c-5.983-5.869-16.914-11.046-28.19-11.046c-17.03,0-27.616,10.241-27.616,23.013v1.266
			c0,12.197,9.32,22.438,24.739,22.438c12.542,0,20.366-6.443,20.366-12.888v-0.575h-18.065v-10.355h42.575v38.662H758.808z"/>
		<path fill="#F5F5F5" d="M783.194,337.062v-16.685h17.489v16.685H783.194z"/>
	</g>
	<circle fill="#E52A30" cx="68.376" cy="87.106" r="9.782"/>
	<circle fill="#E52A30" cx="433.896" cy="214.619" r="9.782"/>
	<circle fill="#E52A30" cx="543" cy="265" r="9.782"/>
	<circle fill="#E52A30" cx="654.449" cy="101.981" r="9.782"/>
	<circle fill="#E52A30" cx="570" cy="19.218" r="9.782"/>
	<circle fill="#E52A30" cx="618.336" cy="293.452" r="9.783"/>
	<circle fill="#E52A30" cx="678.82" cy="193.805" r="9.782"/>
	<circle fill="#E52A30" cx="239.427" cy="103.368" r="9.782"/>
	<circle fill="#E52A30" cx="489.833" cy="96.031" r="9.782"/>
	<circle fill="#E52A30" cx="359" cy="75" r="9.782"/>
	<circle fill="#E52A30" cx="258.191" cy="148.387" r="9.782"/>
	<circle fill="#E52A30" cx="191.861" cy="151.065" r="9.782"/>
	<circle fill="#E52A30" cx="101.701" cy="225.041" r="9.782"/>
	<circle fill="#E52A30" cx="25.842" cy="201.242" r="9.782"/>
	<circle fill="#E52A30" cx="43.692" cy="167.032" r="9.782"/>
	<circle fill="#E52A30" cx="36.359" cy="323.623" r="9.782"/>
	<circle fill="#E52A30" cx="314.402" cy="107.535" r="9.782"/>
	<circle fill="#E52A30" cx="295.066" cy="275.613" r="9.782"/>
	<circle fill="#E52A30" cx="340.188" cy="284.527" r="9.782"/>
	<circle fill="#E52A30" cx="576.218" cy="277" r="9.782"/>
	<circle fill="#E52A30" cx="468.531" cy="190.468" r="9.782"/>
	<circle fill="#E52A30" cx="351.588" cy="170.007" r="9.782"/>
	<circle fill="#E52A30" cx="243.006" cy="174.468" r="9.782"/>
	<circle fill="#E52A30" cx="147.811" cy="299.413" r="9.782"/>
	<circle fill="#E52A30" cx="274.742" cy="242.879" r="9.782"/>
	<circle fill="#E52A30" cx="451.245" cy="88.198" r="9.782"/>
	<circle fill="#E52A30" cx="170.61" cy="59.399" r="9.782"/>
	<g>
		<circle cx="407.306" cy="167.137" r="10.932"/>
		<g>
			<g>
				<path fill-rule="evenodd" clip-rule="evenodd" d="M418.669,165.278c0.012-0.12,0.023-0.238,0.035-0.358
					c-0.025-0.109-0.117-0.271-0.144-0.357c-0.023-0.25-0.047-0.5-0.071-0.751c-0.171-0.436-0.199-0.934-0.356-1.393
					c0.019-0.097-0.007-0.417-0.072-0.573c-0.052-0.125-0.279-0.263-0.321-0.393c-0.045-0.135,0.12-0.147,0.072-0.322
					c-0.098-0.344-0.446-0.543-0.5-0.893c-0.448-0.001-1.315-0.679-1.431-1.001c-0.074-0.209-0.053-0.672-0.07-0.715
					c-0.018-0.044-0.116-0.04-0.144-0.071c-0.097-0.12-0.036-0.314-0.106-0.464c-0.073-0.155-0.262-0.358-0.321-0.536v-0.572
					c-0.023-0.068-0.124-0.122-0.145-0.178c0.013-0.131,0.023-0.262,0.036-0.394c-0.029-0.108-0.159-0.211-0.07-0.357
					c-0.025-0.342-0.342-0.3-0.465-0.536c-0.079-0.15,0.049-0.29-0.037-0.429v-0.036c-0.313-0.002-0.237-0.117-0.393-0.25
					c-0.038-0.038-0.787,0.134-0.82,0.286c-0.103-0.06-0.189-0.533-0.108-0.644v-0.071c-0.105,0.08-0.271,0.268-0.43,0.179
					c-0.034-0.012-0.071-0.025-0.106-0.036c0.011-0.131,0.023-0.263,0.035-0.394c-0.156,0.037-0.217,0.167-0.25,0.322
					c-0.106,0.016-0.215-0.003-0.287,0.036c-0.08,0.046-0.055,0.076-0.105,0.143c-0.088,0.061-0.319,0.088-0.43,0.107
					c-0.141-0.145-0.354-0.262-0.464-0.428c-0.114,0.016-0.271,0.057-0.32,0.143c-0.235-0.029-0.298-0.148-0.537-0.179
					c-0.18-0.498-0.158-0.144-0.394-0.357c-0.05-0.045-0.036-0.194-0.107-0.215c-0.102-0.03-0.119,0.083-0.142,0.143
					c-0.235-0.017-0.252-0.11-0.394-0.179c-0.144-0.068-0.294-0.015-0.431-0.036c0.033-0.115-0.019-0.055,0.071-0.107v-0.178
					c-0.19-0.042-0.444-0.095-0.57,0c-0.112,0.002-0.225,0.005-0.286-0.037c-0.026-0.038-0.021-0.033-0.036-0.106
					c-0.072-0.015-0.069-0.009-0.106-0.036c-0.243,0.007-0.348-0.006-0.466-0.107c-0.011-0.012-0.023-0.024-0.036-0.036
					c-0.036,0.066-0.073,0.136-0.106,0.214c-0.185,0.031-0.186-0.018-0.393-0.035c0.038,0.102,0.074,0.174,0.179,0.214
					c-0.068,0.162-0.26,0.156-0.357,0.286c-0.043,0.057-0.049,0.179-0.106,0.215c-0.172,0.105-0.192-0.047-0.322,0.143
					c-0.188-0.051-0.096-0.147-0.18-0.286c-0.048-0.003-0.05-0.009-0.105,0.071c-0.103-0.003-0.153-0.015-0.215-0.036
					c-0.023-0.062-0.007-0.035-0.035-0.071c0.052-0.24,0.345-0.425,0.213-0.608c-0.035-0.029-0.008-0.013-0.069-0.036
					c-0.025,0.083-0.049,0.167-0.072,0.25c-0.083-0.008-0.102-0.007-0.143-0.037c-0.103,0.004-0.153,0.015-0.215,0.037
					c0.071,0.071,0.143,0.143,0.215,0.214v0.072c-0.11-0.004-0.146-0.021-0.18,0c-0.119,0-0.212-0.011-0.286-0.036v-0.25
					c-0.076,0.013-0.631,0.1-0.68,0.071c-0.224,0.004-0.251,0.065-0.284,0.25c-0.037,0.012-0.071,0.024-0.109,0.036
					c-0.054-0.087-0.083-0.081-0.106-0.214h-0.071c-0.024,0.036-0.048,0.071-0.071,0.107c-0.11,0.045-0.295-0.053-0.357,0.036
					c-0.067,0.097-0.013,0.247-0.106,0.358c-0.082,0.035-0.084,0.008-0.144-0.072c-0.161,0.056-0.454,0.489-0.536,0.644
					c-0.166,0.031-0.264,0.006-0.464,0c-0.015,0.073-0.01,0.068-0.035,0.106c-0.077,0.132-0.232,0.069-0.358,0.143
					c-0.167-0.015-0.156-0.028-0.215-0.143c-0.225,0.046-0.261,0.257-0.393,0.394c-0.012,0.12-0.035,0.088,0.036,0.178
					c-0.071,0.049-0.158,0.045-0.214,0.107c-0.135-0.035-0.096-0.109-0.18-0.143c-0.071,0.012-0.143,0.023-0.214,0.036
					c-0.086-0.006-0.541-0.085-0.572-0.106c-0.063-0.054-0.077-0.129-0.106-0.215c-0.204,0.045-0.095,0.091-0.181,0.144
					c-0.057,0.036-0.273,0.026-0.32,0.036c-0.079-0.089-0.151-0.177-0.214-0.286c-0.193,0.071-0.4,0.323-0.537,0.465
					c-0.011,0.011-0.025,0.023-0.036,0.035c-0.079-0.225-0.127-0.426-0.214-0.607c-0.023-0.012-0.047-0.024-0.071-0.036
					c-0.075,0.143-0.197,0.202-0.25,0.357c-0.085-0.039-0.098-0.069-0.143-0.143c-0.172,0.028-0.27,0.074-0.501,0.072
					c-0.068,0.144-0.15,0.306-0.249,0.429c-0.013,0.012-0.024,0.024-0.036,0.036c-0.023-0.083-0.049-0.167-0.072-0.25
					c-0.072,0.015-0.069,0.01-0.106,0.036c-0.042,0.065-0.026,0.192-0.036,0.214c-0.041,0.08-0.051,0.054-0.106,0.107
					c-0.1,0.146-0.151,0.534-0.251,0.715c-0.155,0.053-0.313,0.079-0.43,0.142c-0.01,0.12-0.033,0.089,0.036,0.179
					c-0.062,0.086-0.15,0.072-0.214,0.143c-0.023,0.107-0.047,0.215-0.071,0.321c-0.071,0.024-0.144,0.048-0.214,0.071
					c-0.158,0.271,0.174,0.172-0.215,0.394c0.015,0.375-0.007,0.528-0.251,0.644c-0.001,0.396-0.001,0.577-0.143,0.821
					c-0.06,0.036-0.12,0.072-0.178,0.108c-0.054,0.107,0.047,0.213,0.035,0.286c-0.018,0.096-0.103,0.284-0.145,0.393
					c-0.125,0.051-0.152,0.052-0.284,0.036c-0.013,0.012-0.024,0.024-0.036,0.036c0.007,0.122,0.017,0.182,0.072,0.25v0.179
					c-0.103-0.028-0.125-0.037-0.179-0.107c-0.132,0.045-0.161,0.093-0.18,0.25c-0.083-0.026-0.08-0.037-0.143-0.071
					c-0.043,0.102-0.059,0.155-0.144,0.214c0.019,0.155,0.013,0.143,0.144,0.179c-0.037,0.202-0.267,0.353-0.464,0.393
					c-0.016,0.205-0.094,0.296-0.144,0.429c0.023,0.083,0.048,0.167,0.071,0.25c-0.011,0.048-0.133,0.143-0.143,0.179
					c-0.021,0.074,0.078,0.17,0.036,0.286c-0.008,0.019-0.104,0.107-0.108,0.143c-0.013,0.107,0.087,0.124,0.108,0.178
					c0.012,0.274,0.023,0.548,0.035,0.822c-0.663-0.005-1.753,0.075-1.966,0.465c-0.252-0.013-0.353-0.129-0.535-0.179h-0.537
					c-0.023-0.025-0.048-0.048-0.071-0.071c-0.245-0.06-0.263,0.172-0.429-0.036c-0.123,0.046-0.304,0.158-0.393,0.25
					c-0.247,0-0.338-0.064-0.463-0.178c-0.149,0.007-0.164,0.025-0.251,0.072c0.023,0.125,0.083,0.111,0.107,0.178
					c0.066,0.181-0.091,0.42,0,0.643c0.034,0.083,0.158,0.168,0.18,0.287c0.017,0.103-0.06,0.292,0,0.464
					c0.13,0.383,0.416,0.819,0.607,1.179c0.148,0.28,0.241,0.847,0.643,0.75c0.012,0.012,0.023,0.023,0.036,0.036
					c-0.025,0.129-0.152,0.428-0.25,0.5c0.001,0.667,0.438,0.81,0.679,1.215c0.024,0.155,0.048,0.31,0.071,0.464
					c0.048,0.036,0.096,0.072,0.144,0.108v1.107c0.048,0.023,0.095,0.048,0.144,0.072c0.093,0.17,0.11,1.063,0.463,0.715h0.072
					c0.039,0.221-0.11,0.422-0.036,0.644c0.052,0.153,0.211,0.465,0.251,0.606v0.465c0.128,0.293,0.764,1.034,1.071,1.144
					c0.092,0.034,0.094-0.008,0.143-0.108c0.295,0.032,0.245,0.239,0.429,0.358c0.07,0.011,0.143,0.023,0.215,0.035
					c0.117,0.06,0.301,0.24,0.429,0.286c0.296,0.106,0.66-0.106,0.786-0.037c0.189,0.036,0.246,0.186,0.322,0.322
					c0.127-0.022,0.121-0.023,0.179-0.106c0.236,0.033,0.238,0.165,0.394,0.25c0.176,0.098,0.374,0.075,0.534,0.179
					c0.105,0.067,0.201,0.241,0.322,0.286h0.286c0.052,0.017,0.137,0.126,0.18,0.142c0.157,0.063,0.441-0.004,0.569,0.037
					c0.094-0.145,0.202-0.272,0.287-0.43c0.262,0.057,0.417,0.3,0.607,0.43c0.4,0.268,0.734,0.439,1.215,0.643
					c0.078,0.033,0.138,0.148,0.215,0.179c0.254,0.097,0.456,0.046,0.715,0.143c0.181,0.067,0.394,0.227,0.608,0.285
					c0.298,0.083,0.499,0.024,0.784,0.107c0.269,0.078,0.577,0.283,0.823,0.358h0.286c0.036,0.036,0.071,0.072,0.106,0.107h0.322
					c0.048,0.047,0.095,0.095,0.144,0.143c0.527,0.216,1.091,0.243,1.607,0.463c0.622,0.267,1.241,0.601,1.965,0.788
					c0.256,0.066,0.466-0.045,0.68,0c1.306,0.277,2.607-0.281,3.645-0.751c0.283-0.128,0.798-0.17,1.002-0.358
					c0.011-0.046,0.022-0.095,0.034-0.142c0.15-0.114,0.465-0.025,0.607-0.143c0.804-0.671,1.779-1.442,2.395-2.288
					c0.076-0.104,0.073-0.245,0.144-0.357c0.034-0.023,0.071-0.048,0.106-0.072v-0.287c0.06-0.046,0.12-0.095,0.179-0.141
					c0.128-0.234,0.125-0.47,0.249-0.715c0.096-0.183,0.287-0.418,0.359-0.607c0.067-0.179,0.019-0.368,0.107-0.537
					c0.066-0.128,0.198-0.335,0.25-0.5c0.023-0.076-0.05-0.111-0.037-0.144c0.037-0.093,0.177-0.24,0.215-0.357v-0.215
					c0.059-0.059,0.119-0.118,0.179-0.178v-0.286c0.104-0.313,0.314-0.665,0.394-1.036c0.099-0.452,0.087-1.16,0.214-1.68v-0.32
					c0.023-0.074,0.119-0.195,0.143-0.287v-0.428c0.106-0.363,0.298-0.829,0.357-1.25
					C418.876,165.755,418.695,165.42,418.669,165.278z M397.94,156.451c0.029,0.037,0.015,0.009,0.037,0.071
					C397.905,156.49,397.954,156.53,397.94,156.451z M417.133,170.639h-0.037v-0.072h0.037V170.639z M418.275,165.243
					c0.188,0.793-0.455,1.353-0.715,1.858c-0.156,0.304-0.02,0.676-0.143,1.036c-0.029,0.083-0.153,0.172-0.179,0.251
					c-0.097,0.277,0.12,0.514,0,0.75c-0.083,0.163-0.32,0.323-0.393,0.501c-0.012,0.155-0.023,0.31-0.036,0.464
					c-0.045,0.106-0.209,0.138-0.285,0.215c-0.155,0.152-0.214,0.447-0.394,0.572c-0.089,0.06-0.252,0.051-0.287,0.07
					c-0.062,0.037-0.32,0.295-0.356,0.357c-0.103,0.183,0.043,0.493-0.036,0.715c-0.094,0.259-0.315,0.51-0.464,0.715
					c-0.013,0.047-0.024,0.094-0.036,0.143c-0.035,0.03-0.337,0.111-0.394,0.144c0,0.304,0.092,0.415,0.144,0.606v0.572
					c0.071,0.263,0.333,0.44,0.537,0.571c-0.027,0.083-0.039,0.08-0.072,0.144c-0.137-0.015-0.287-0.072-0.394,0h-0.071
					c-0.039,0.249,0.066,0.59-0.034,0.822c-0.227,0.072-0.453,0.142-0.681,0.214c-0.227,0.166-0.177,0.508-0.358,0.715
					c-0.347,0.395-1.223,0.312-1.535,0c-0.182-0.002-0.258,0.017-0.358,0.071c0.01,0.182,0.061,0.346,0.144,0.464
					c-0.018,0.178-0.196,0.44-0.321,0.501c-0.107,0.011-0.216,0.023-0.322,0.035c-0.149,0.083-0.293,0.316-0.464,0.394
					c-0.069,0.032-0.878,0.165-0.966,0.143c-0.065-0.016-0.127-0.098-0.249-0.071c-0.266,0.058-0.401,0.093-0.751,0.071
					c-0.222-0.218-0.543-0.418-0.715-0.678c-0.073,0.013-0.068,0.008-0.107,0.036c-0.422-0.015-0.384-0.236-0.571-0.466
					c-0.048-0.023-0.096-0.047-0.143-0.072c-0.053-0.068-0.04-0.198-0.107-0.25c-0.132-0.035-0.262-0.071-0.394-0.107
					c-0.151-0.1-0.265-0.293-0.465-0.357h-0.606c-0.06-0.022-0.366-0.288-0.466-0.322h-0.928c-0.197-0.047-0.492-0.097-0.716-0.144
					c-0.364-0.078-0.464,0.226-0.714,0c-0.263-0.106-0.124-0.377-0.287-0.571c-0.06-0.072-0.195-0.097-0.249-0.179
					c-0.038-0.057-0.033-0.129-0.071-0.178c-0.069-0.058-0.143-0.08-0.215-0.037c-0.251-0.047-0.239-0.252-0.357-0.428v-0.035
					c-0.25,0.078-0.313,0.369-0.43,0.571c-0.256-0.003-0.468,0.027-0.606,0.142c-0.132-0.051-0.139-0.171-0.252-0.213
					c-0.353-0.135-0.621-0.014-0.963,0c-0.108-0.084-0.215-0.167-0.321-0.25c0.014-0.074,0.009-0.069,0.035-0.108
					c0.097-0.033,0.322,0.12,0.5,0.144c0.265,0.036,0.264-0.171,0.357-0.214c0.16-0.072,0.312,0.08,0.464-0.035
					c0.076-0.071,0.045-0.163,0.108-0.25c0.098-0.135,0.363-0.222,0.536-0.287c0.15-0.965-0.415-1.861-0.717-2.607
					c-0.227-0.568-0.219-1.274-0.5-1.787c-0.082-0.083-0.165-0.168-0.249-0.251c-0.105-0.163-0.101-0.306-0.178-0.5
					c-0.036-0.036-0.072-0.071-0.107-0.107c-0.014-0.107-0.024-0.214-0.037-0.321c-0.059-0.156-0.267-0.282-0.321-0.429
					c-0.07-0.19-0.012-0.332-0.072-0.5c-0.072-0.209-0.252-0.474-0.32-0.68v-0.285c-0.029-0.108-0.115-0.25-0.143-0.358v-0.572
					c-0.052-0.176-0.175-0.343-0.215-0.572c-0.038-0.218,0.177-0.505,0.107-0.785c-0.053-0.21-0.291-0.298-0.358-0.465
					c-0.134-0.342,0.076-0.574-0.142-0.857c-0.007-0.148-0.023-0.231,0.069-0.287c0.172-0.085,0.336,0.06,0.538,0
					c0.113-0.034,0.333-0.251,0.535-0.179c0.036,0.036,0.072,0.072,0.108,0.107c0.126,0.035,0.153-0.068,0.285,0
					c0.095,0.049,0.1,0.201,0.321,0.143c0.126-0.034,0.29-0.144,0.428-0.179h0.823c0.235-0.104,0.399-0.363,0.608-0.5
					c0.018-0.119,0.067-0.257,0-0.357c0.041-0.369,0.251-0.208,0.5-0.357c0.166-0.1,0.362-0.291,0.499-0.429
					c0.535-0.022,0.875-0.041,0.966,0.393c0.308-0.064,0.395-0.423,0.642-0.536c0.094-0.042,0.221,0.006,0.287-0.036
					c0.325-0.264,0.287-0.915,0.715-1.072c0.037-0.029,0.01-0.013,0.071-0.036c0.023,0.023,0.047,0.047,0.071,0.071
					c0,0.741-0.003,1.398,0.286,1.93c0.06,0.108,0.246,0.179,0.323,0.286c0.323-0.032,0.5-0.022,0.642,0.214
					c0.062-0.023,0.036-0.007,0.072-0.036c0.345-0.09,0.322-0.489,0.5-0.75c0.091-0.134,0.306-0.18,0.428-0.286
					c0.146-0.001,0.299,0.003,0.394,0.036c0.012,0.06,0.024,0.119,0.036,0.178c0.175-0.02,0.22-0.05,0.286-0.178
					c0.208,0.034,0.253,0.204,0.429,0.25c0.386,0.101,0.659-0.554,0.928-0.644c0.057-0.028,0.088,0.002,0.144,0.072
					c0.161-0.003,0.196-0.023,0.286-0.072c-0.022-0.162-0.069-0.216-0.179-0.286c0.006-0.09,0.006-0.131,0.036-0.178v-0.036
					c0.262,0.092,0.422,0.687,0.571,0.929c0.137,0.221,0.494,0.354,0.607,0.572v0.179c0.048,0.036,0.096,0.071,0.143,0.107
					c0.013,0.071,0.025,0.143,0.036,0.214c0.056,0.101,0.202,0.213,0.251,0.321v0.143c0.048,0.024,0.096,0.048,0.143,0.072
					c0.054,0.073,0.038,0.194,0.106,0.25c0.067,0.055,0.163,0.039,0.215,0.107c0.126,0.164,0.234,0.426,0.321,0.607
					c0.144,0.052,0.324,0.144,0.431,0.178c0.312,0.106,0.623-0.106,0.999,0c0.117,0.033,0.195,0.146,0.285,0.179
					c0.191,0.067,0.61,0,0.716,0.036c0.12,0.041,0.289,0.206,0.429,0.25c0.172,0.053,0.362,0.005,0.465,0.035
					c0.126,0.037,0.298,0.208,0.428,0.25c0.144-0.011,0.287-0.024,0.431-0.036c0.134,0.029,0.243,0.125,0.356,0.179
					c0.135-0.163,0.603-0.699,1.001-0.429c0.264,0.005,0.379,0.145,0.428,0.357C418.415,164.84,418.22,165.004,418.275,165.243z
					 M412.808,153.914c0.082-0.181,0.132-0.393,0.251-0.536c-0.02-0.222-0.122-0.384-0.285-0.464
					c-0.038,0.029-0.011,0.013-0.072,0.036c-0.01,0.168-0.108,0.243-0.071,0.393c0.033,0.139,0.118,0.366,0.144,0.572H412.808z
					 M406.411,153.664v0.071h0.036C406.424,153.673,406.44,153.7,406.411,153.664z M411.664,154.379
					c0.013-0.012,0.024-0.024,0.036-0.036c-0.031-0.115,0.019-0.055-0.071-0.107c-0.019,0.081-0.031,0.04,0,0.107
					C411.641,154.355,411.653,154.367,411.664,154.379z M396.941,155.2h-0.107v0.143h0.107V155.2z"/>
			</g>
		</g>
	</g>
	<circle fill="#E52A30" cx="649.702" cy="208.647" r="10.736"/>
</g>
</svg>
